<svg width="157" height="25" viewBox="0 0 157 25" fill="none" xmlns="http://www.w3.org/2000/svg"><path d="m13.092.5 13.425 7.714v7.715L13.091 8.214V.5Z" fill="url(#paint0_linear_264_13644)"></path><path d="m13.092 24.5 13.425-7.636V9.227l-13.425 7.637V24.5Z" fill="url(#paint1_linear_264_13644)"></path><path d="M13.092.5 0 8.214v7.715l13.092-7.715V.5Z" fill="url(#paint2_linear_264_13644)"></path><path d="M13.092 24.5 0 16.864V9.227l13.092 7.637V24.5Z" fill="url(#paint3_linear_264_13644)"></path><path fill-rule="evenodd" clip-rule="evenodd" d="M42.653 20.006h2.253V4.804h-2.253v15.202Zm4.641-6.977V11.2l4.05-6.395h2.48l-4.664 7.213v.043l4.96 7.946H51.57l-4.277-6.977Zm21.864-8.225-3.14 11.154c-.227.84-.34 1.615-.34 1.615h-.046s-.09-.797-.296-1.615L62.493 4.804h-2.321l4.095 15.202h2.616l2.776-9.862c.273-.969.478-2.153.478-2.153h.045s.205 1.184.478 2.153l2.775 9.862h2.617L80.26 4.804h-2.32l-2.958 11.154c-.227.818-.295 1.615-.295 1.615h-.046s-.114-.775-.341-1.615L71.16 4.804h-2.002ZM97.67 20.006h-9.714V4.804h9.327v1.852h-7.075v4.758h5.756v1.852h-5.756v4.888h7.462v1.852Zm8.104 0h2.253v-9.862c0-.861-.159-2.218-.159-2.218h.045s.751 1.378 1.342 2.218l7.167 9.862h2.206V4.804h-2.252v9.883c0 .84.159 2.197.159 2.197h-.045s-.751-1.378-1.342-2.197l-7.144-9.883h-2.23v15.202Zm27.684 0h-2.253V6.656H125.7V4.804h13.263v1.852h-5.505v13.35Zm21.176 0h2.343l-5.779-15.202h-2.366l-5.778 15.202h2.32l1.569-4.306.615-1.83 1.798-4.824c.273-.775.637-2.154.637-2.154h.045s.341 1.379.614 2.154l1.775 4.823h.001l.611 1.82 1.595 4.317Z" fill="#737373"></path><defs><linearGradient id="paint0_linear_264_13644" x1="37.963" y1="8.171" x2="4.861" y2="8.171" gradientUnits="userSpaceOnUse"><stop stop-color="#996939"></stop><stop offset="1" stop-color="#D0A875"></stop></linearGradient><linearGradient id="paint1_linear_264_13644" x1="19.805" y1="24.5" x2="22.729" y2="-4.747" gradientUnits="userSpaceOnUse"><stop stop-color="#272728"></stop><stop offset="1" stop-color="#4B4B4B"></stop></linearGradient><linearGradient id="paint2_linear_264_13644" x1="13.173" y1="3.663" x2="0.554" y2="14.109" gradientUnits="userSpaceOnUse"><stop stop-color="#996939"></stop><stop offset="1" stop-color="#D0A875"></stop></linearGradient><linearGradient id="paint3_linear_264_13644" x1="6.546" y1="24.5" x2="6.546" y2="9.227" gradientUnits="userSpaceOnUse"><stop stop-color="#363636"></stop><stop offset="1" stop-color="#333232"></stop></linearGradient></defs></svg>