<svg width="191" height="10.5px" viewBox="0 0 191 15" fill="none" xmlns="http://www.w3.org/2000/svg"><path d="M18.385 7.279c-.812-.794-1.788-1.19-2.929-1.19H4.15a.749.749 0 0 1-.54-.22.715.715 0 0 1-.227-.534v-.917a.7.7 0 0 1 .226-.52.75.75 0 0 1 .54-.219h14.578a.12.12 0 0 0 .09-.034.104.104 0 0 0 .033-.075V.832c0-.036-.011-.064-.034-.082a.14.14 0 0 0-.089-.027H4.15c-1.15 0-2.129.397-2.936 1.19C.406 2.709.002 3.666.002 4.789v.178c0 1.132.404 2.094 1.212 2.888.807.794 1.786 1.19 2.936 1.19h11.306c.2 0 .377.072.527.213.15.141.226.317.226.527v.917c0 .21-.075.386-.226.527a.746.746 0 0 1-.527.213H.865a.104.104 0 0 0-.075.034.12.12 0 0 0-.035.089V14.3c0 .028.012.053.035.076a.105.105 0 0 0 .075.034h14.591c1.14 0 2.117-.4 2.93-1.198.811-.798 1.217-1.758 1.217-2.881v-.178c0-1.123-.406-2.081-1.218-2.875ZM42.93.723H39.77a.118.118 0 0 0-.075.027c-.023.018-.035.046-.035.082V4.31c0 .3-.155.529-.465.684l-6.31 2.614-6.31-2.614c-.31-.155-.465-.383-.465-.684V.832c0-.036-.01-.064-.027-.082-.02-.018-.047-.027-.083-.027h-3.162a.118.118 0 0 0-.075.027c-.023.018-.034.046-.034.082v3.983c0 .594.164 1.136.493 1.629.328.493.775.858 1.34 1.095l6.626 2.778v3.97a.12.12 0 0 0 .034.09.12.12 0 0 0 .089.034h3.162a.105.105 0 0 0 .075-.035.12.12 0 0 0 .034-.089v-3.97l6.625-2.764a3.04 3.04 0 0 0 1.341-1.102 2.84 2.84 0 0 0 .493-1.622V.832c0-.036-.011-.064-.034-.082a.119.119 0 0 0-.075-.027ZM66.418.723h-3.162c-.036 0-.064.011-.082.034a.117.117 0 0 0-.027.075v10.622h-1.328c-.247 0-.456-.11-.63-.329L55.057 2.16C54.4 1.238 53.492.76 52.333.723H47.05a.121.121 0 0 0-.089.034.105.105 0 0 0-.034.075v13.469c0 .027.011.052.034.075a.12.12 0 0 0 .09.034h3.161a.105.105 0 0 0 .075-.034.104.104 0 0 0 .035-.075V3.679h1.327c.247 0 .456.114.63.342l6.132 8.966c.657.921 1.565 1.396 2.724 1.423h5.283c.037 0 .064-.011.083-.034a.118.118 0 0 0 .027-.075V.832A.118.118 0 0 0 66.5.757c-.02-.023-.046-.034-.083-.034ZM89.27.723H69.902c-.037 0-.065.011-.083.034a.117.117 0 0 0-.027.075V3.57c0 .027.009.052.027.075.018.023.046.034.082.034h7.994v10.622c0 .027.009.052.027.075.018.023.046.034.082.034h3.162c.037 0 .064-.011.083-.034a.118.118 0 0 0 .027-.075V3.679h7.993a.12.12 0 0 0 .09-.034.105.105 0 0 0 .033-.075V.832a.105.105 0 0 0-.034-.075.118.118 0 0 0-.088-.034ZM112.757.723h-3.162a.103.103 0 0 0-.075.034.104.104 0 0 0-.034.075v5.256H96.674V.832a.105.105 0 0 0-.034-.075.122.122 0 0 0-.09-.034H93.39a.104.104 0 0 0-.075.034.105.105 0 0 0-.034.075v13.469c0 .027.011.052.034.075a.105.105 0 0 0 .075.034h3.162a.12.12 0 0 0 .089-.034.105.105 0 0 0 .034-.075V9.045h12.812V14.3c0 .027.011.052.034.075a.105.105 0 0 0 .075.034h3.162a.12.12 0 0 0 .089-.034.104.104 0 0 0 .034-.075V.832a.108.108 0 0 0-.034-.075.121.121 0 0 0-.089-.034ZM136.157.723h-15.343c-1.141 0-2.118.396-2.93 1.19-.812.794-1.218 1.752-1.218 2.875v5.543c0 1.132.406 2.095 1.218 2.889.812.793 1.789 1.19 2.93 1.19h15.343a.105.105 0 0 0 .076-.034.108.108 0 0 0 .034-.075v-2.738c0-.036-.012-.063-.034-.082a.12.12 0 0 0-.076-.027h-15.343a.727.727 0 0 1-.534-.219.71.71 0 0 1-.219-.52v-1.67h16.086c.037 0 .064-.012.083-.034a.119.119 0 0 0 .027-.076V6.198c0-.037-.009-.064-.027-.082-.019-.018-.046-.028-.083-.028h-16.086v-1.67c0-.2.073-.373.219-.52a.727.727 0 0 1 .534-.219h15.343a.105.105 0 0 0 .076-.034.107.107 0 0 0 .034-.075V.832a.108.108 0 0 0-.034-.075.107.107 0 0 0-.076-.034ZM159.533.723h-19.368c-.037 0-.064.011-.082.034a.114.114 0 0 0-.028.075V3.57c0 .027.009.052.028.075.018.023.045.034.082.034h7.993v10.622c0 .027.009.052.028.075.018.023.045.034.082.034h3.162c.036 0 .063-.011.082-.034a.118.118 0 0 0 .027-.075V3.679h7.994a.118.118 0 0 0 .088-.034.105.105 0 0 0 .035-.075V.832a.105.105 0 0 0-.035-.075.118.118 0 0 0-.088-.034ZM166.896.75c-.018-.018-.045-.027-.082-.027h-3.162c-.036 0-.064.009-.082.027-.018.018-.027.046-.027.082v13.469c0 .027.009.052.027.075.018.023.046.034.082.034h3.162c.037 0 .064-.011.082-.034a.12.12 0 0 0 .028-.075V.832c0-.036-.01-.064-.028-.082ZM175.624 4.05a.65.65 0 0 0-.507-.234h-4.106a.121.121 0 0 1-.089-.034.107.107 0 0 1-.034-.075V.969c0-.027.012-.052.034-.075a.123.123 0 0 1 .089-.034h4.339c1.095 0 2.04.443 2.834 1.328l1.054 1.272-2.054 2.478-1.56-1.889Zm7.583-1.876c.794-.876 1.743-1.314 2.847-1.314h4.325c.036 0 .064.01.082.027.018.019.027.046.027.082v2.738a.118.118 0 0 1-.027.075c-.018.023-.046.034-.082.034h-4.106a.65.65 0 0 0-.507.233l-3.025 3.641 3.039 3.668c.137.146.301.22.493.22h4.106c.036 0 .064.01.082.034a.14.14 0 0 1 .027.088v2.738a.118.118 0 0 1-.027.075c-.018.023-.046.034-.082.034h-4.325c-1.104 0-2.049-.442-2.833-1.327l-2.519-3.039-2.518 3.039c-.794.885-1.743 1.327-2.847 1.327h-4.326c-.036 0-.064-.011-.082-.034a.14.14 0 0 1-.027-.09v-2.737c0-.027.009-.052.027-.075.018-.023.046-.034.082-.034h4.106a.676.676 0 0 0 .507-.233l2.97-3.586 4.613-5.584Z" fill="#737373"></path></svg>